<svg xmlns="http://www.w3.org/2000/svg" xml:space="preserve" width="2000" height="1500" data-id="lg_C13Oaz7S3OJ8zYOu07" data-version="1" viewBox="0 0 2000 1500"><path fill="#fffff8" stroke="transparent" d="M0 0h2000v1500H0z"/><g data-padding="20"><g transform="translate(-1125.477 -840.12)scale(2.07027)"><path fill="#b10dc9" d="M1177.702 544.786h-96.25v-28.875c0-5.39-4.235-9.625-9.625-9.625h-115.5c-5.39 0-9.625 4.235-9.625 9.625v28.875h-96.25c-5.39 0-9.625 4.235-9.625 9.625v192.5c0 5.39 4.235 9.625 9.625 9.625h327.25c5.39 0 9.625-4.235 9.625-9.625v-192.5c0-5.39-4.235-9.625-9.625-9.625m-211.75-19.25h96.25v19.25h-96.25Zm202.125 211.75h-308V620.631c12.32 12.705 29.26 20.405 48.125 20.405h77v9.625c0 5.39 4.235 9.625 9.625 9.625h38.5c5.39 0 9.625-4.235 9.625-9.625v-9.625h77c18.865 0 35.805-7.7 48.125-20.405Zm-163.625-96.25v-19.25h19.25v19.25Zm163.625-67.375c0 26.565-21.56 48.125-48.125 48.125h-77v-9.625c0-5.39-4.235-9.625-9.625-9.625h-38.5c-5.39 0-9.625 4.235-9.625 9.625v9.625h-77c-26.565 0-48.125-21.56-48.125-48.125v-9.625h308Z"/><rect width="411.548" height="176.28" x="254.51" y="182.265" fill="none" rx="0" ry="0" transform="translate(400.68 542.24)scale(1.36)"/><path fill="#b10dc9" d="M832.704 828.078h19.516l-19.312 109.263q-3.386 18.455-16.442 29.28-13.043 10.826-31.498 10.826-16.13 0-25.35-8.486-9.235-8.487-9.235-23.555 0-5.087.843-9.548h19.312q-.64 3.183-.64 6.365 0 8.27 4.462 13.151 4.447 4.883 13.79 4.883 10.608 0 17.082-6.474 6.46-6.473 8.378-16.442Zm98.858 149.37q-18.455 0-32.45-7.753-14.007-7.738-21.746-21.746-7.752-13.995-7.752-32.028 0-25.038 11.356-45.52 11.343-20.467 31.294-32.245 19.938-11.778 44.554-11.778 18.672 0 32.776 7.752 14.103 7.74 21.746 21.638t7.643 31.933q0 25.241-11.356 45.723-11.356 20.468-31.293 32.246-19.938 11.777-44.772 11.777m2.76-17.409q18.674 0 33.416-9.642 14.743-9.656 23.025-25.99 8.269-16.347 8.269-35.44 0-21-12.09-33.09t-32.885-12.09q-18.673 0-33.415 9.642-14.743 9.656-22.916 25.894-8.16 16.225-8.16 35.32 0 20.998 11.98 33.197t32.777 12.2m215.764-94.398q-2.325 13.165-10.92 21.746-8.596 8.596-20.904 12.417 10.404 1.7 16.973 10.078 6.582 8.377 6.582 19.842 0 3.387-.64 6.57-1.903 11.246-9.22 20.263-7.33 9.017-19.203 14.212-11.886 5.195-26.737 5.195h-55.162l26.316-147.873h53.04q19.938 0 30.233 8.487 10.28 8.486 10.28 22.073 0 3.386-.638 6.99m-19.937 2.34q.42-1.905.42-5.305 0-9.125-6.364-14.212-6.364-5.1-18.455-5.1h-32.041l-8.69 49.015h32.462q13.356 0 22.06-6.474t10.608-17.925m-8.065 66.408q.639-2.978.639-5.522 0-9.75-7.208-15.49-7.222-5.726-19.734-5.726h-33.524l-9.33 53.04h34.15q14.212 0 23.556-7.004 9.33-6.99 11.45-19.298m146.8-106.297h21.855l-64.491 92.086-9.97 55.787h-19.311l9.969-55.787-32.246-92.086h21.638l23.133 74.474Z"/></g><path fill="transparent" stroke="transparent" stroke-width="2.147" d="M398.855 187.5h1202.29v1125H398.855z"/></g></svg>